<svg width="657" height="657" viewBox="0 0 657 657" fill="none" xmlns="http://www.w3.org/2000/svg">
<path d="M657 328.5C657 509.926 509.926 657 328.5 657C147.074 657 0 509.926 0 328.5C0 147.074 147.074 0 328.5 0C509.926 0 657 147.074 657 328.5Z" fill="black"/>
<path fill-rule="evenodd" clip-rule="evenodd" d="M254.659 206.618C261.902 194.494 279.648 195.053 286.114 207.609L340.795 313.792L387.018 215.35C389.984 209.033 396.333 205 403.311 205H477.5C484.127 205 489.5 210.372 489.5 217C489.5 223.627 484.127 229 477.5 229H407.122L354.664 340.723L406.818 442H477.5C484.127 442 489.5 447.372 489.5 454C489.5 460.627 484.127 466 477.5 466H403.159C396.418 466 390.242 462.234 387.156 456.241L341.789 368.143L323.205 407.721C316.771 421.424 297.323 421.547 290.717 407.925L265.285 355.493L206.139 452.243C199.28 463.462 183.098 463.78 175.804 452.839L146.117 408.309C142.265 402.531 142.08 395.054 145.642 389.093L254.659 206.618ZM327.92 341.212L269.722 228.2L168.188 398.149L190.562 431.71L250.535 333.608C257.96 321.463 275.876 322.334 282.088 335.141L306.824 386.14L327.92 341.212Z" fill="white"/>
</svg>
