<svg xmlns="http://www.w3.org/2000/svg" fill="none" viewBox="0 0 460 460" height="460" width="460"
  id="Bubble-Circle--Streamline-Retro">
  <desc>Bubble Circle Streamline Element: https://streamlinehq.com</desc>
  <path fill="#ffce51"
    d="M254.2007916666667 346.87833333333333C322.6775416666666 325.83333333333337 372.45625000000007 262.0830833333333 372.45625000000007 186.705375 372.45625000000007 94.17627916666667 297.4465416666667 19.166666666666668 204.91754166666666 19.166666666666668 112.38854166666667 19.166666666666668 37.3787375 94.17627916666667 37.3787375 186.705375c0 75.37770833333333 49.778708333333334 139.12891666666667 118.25555416666667 160.17295833333333l49.28325 68.89170833333334 49.28325 -68.89170833333334Z"
    stroke-width="2"></path>
  <path fill="#ea563d"
    d="M304.3685833333334 371.9406666666667c68.47675000000001 -21.045 118.25545833333335 -84.79620833333334 118.25545833333335 -160.17295833333333 0 -58.69408333333334 -30.18175 -110.33866666666668 -75.87220833333333 -140.26042083333334l-64.47666666666667 -33.454745833333334c53.592875 27.946533333333335 90.18204166666666 84.02475 90.18204166666666 148.649 0 75.37770833333333 -49.778708333333334 139.12891666666667 -118.25545833333335 160.17295833333333l50.16683333333334 25.06616666666667Z"
    stroke-width="2"></path>
  <path fill="#ea563d"
    d="m204.93766666666667 415.7633333333334 50.16683333333334 25.065208333333334 49.28325 -68.89170833333334 -50.167791666666666 -25.065208333333334 -49.28229166666667 68.89170833333334Z"
    stroke-width="2"></path>
  <path stroke="#000000" stroke-linecap="round" stroke-linejoin="round"
    d="M254.2007916666667 346.87833333333333C322.6775416666666 325.83333333333337 372.45625000000007 262.0830833333333 372.45625000000007 186.705375 372.45625000000007 94.17627916666667 297.4465416666667 19.166666666666668 204.91754166666666 19.166666666666668 112.38854166666667 19.166666666666668 37.3787375 94.17627916666667 37.3787375 186.705375c0 75.37770833333333 49.778708333333334 139.12891666666667 118.25555416666667 160.17295833333333l49.28325 68.89170833333334 49.28325 -68.89170833333334Z"
    stroke-width="2"></path>
  <path stroke="#000000" stroke-linecap="round" stroke-linejoin="round"
    d="M304.3685833333334 371.9406666666667c68.47675000000001 -21.045 118.25545833333335 -84.79620833333334 118.25545833333335 -160.17295833333333 0 -58.69408333333334 -30.18175 -110.33866666666668 -75.87220833333333 -140.26042083333334l-64.47666666666667 -33.454745833333334c53.592875 27.946533333333335 90.18204166666666 84.02475 90.18204166666666 148.649 0 75.37770833333333 -49.778708333333334 139.12891666666667 -118.25545833333335 160.17295833333333l50.16683333333334 25.06616666666667Z"
    stroke-width="2"></path>
  <path stroke="#000000" stroke-linecap="round" stroke-linejoin="round"
    d="m204.93766666666667 415.7633333333334 50.16683333333334 25.065208333333334 49.28325 -68.89170833333334 -50.167791666666666 -25.065208333333334 -49.28229166666667 68.89170833333334Z"
    stroke-width="2"></path>
</svg>