<svg xmlns="http://www.w3.org/2000/svg" fill="none" viewBox="0 0 460 460" height="460" width="460"
  id="Ghost--Streamline-Retro.svg">
  <desc>Ghost Streamline Element: https://streamlinehq.com</desc>
  <path fill="#e38414"
    d="M15.088958333333334 349.614375L69.19358333333334 147.69354166666668C87.02625 81.13825 144.99008333333336 36.05441666666667 210.07720833333335 31.511916666666668L275.10108333333335 29.530083333333334C210.66466666666668 34.70125 153.50775000000002 79.58575 135.8226666666667 145.58425L81.71804166666668 347.50604166666665L15.088958333333334 349.6038333333334Z"
    stroke-width="2"></path>
  <path fill="#ffb9ec"
    d="M135.812125 145.564125C158.29079166666668 61.700375 244.48233333333334 11.928374999999999 328.35566666666665 34.40704166666667C412.21845833333333 56.876125 461.9904583333334 143.07725000000002 439.5117916666667 226.94100000000003L385.4071666666667 428.8618333333333L327.4011666666667 341.6947083333333L233.56308333333334 388.1729166666667L175.54558333333333 301.00675L81.70750000000001 347.4849583333334L135.812125 145.564125Z"
    stroke-width="2"></path>
  <path stroke="#000000" stroke-linejoin="round"
    d="M135.812125 145.564125C158.29079166666668 61.700375 244.48233333333334 11.928374999999999 328.35566666666665 34.40704166666667C412.21845833333333 56.876125 461.9904583333334 143.07725000000002 439.5117916666667 226.94100000000003L385.4071666666667 428.8618333333333L327.4011666666667 341.6947083333333L233.56308333333334 388.1729166666667L175.54558333333333 301.00675L81.70750000000001 347.4849583333334L135.812125 145.564125Z"
    stroke-width="2"></path>
  <path fill="#2685f5"
    d="M276.24437500000005 367.0579583333333L318.7895833333334 430.99125000000004L385.4177083333334 428.89345833333334L327.41170833333337 341.7157916666667L276.24437500000005 367.0579583333333Z"
    stroke-width="2"></path>
  <path fill="#2685f5"
    d="M124.38879166666666 326.38054166666666L166.934 390.30233333333337L233.57362500000002 388.20454166666667L175.556125 301.026875L124.38879166666666 326.38054166666666Z"
    stroke-width="2"></path>
  <path stroke="#000000" stroke-linejoin="round"
    d="M15.088958333333334 349.614375L69.19358333333334 147.69354166666668C87.02625 81.13825 144.99008333333336 36.05441666666667 210.07720833333335 31.511916666666668L275.10108333333335 29.530083333333334C210.66466666666668 34.70125 153.50775000000002 79.58575 135.8226666666667 145.58425L81.71804166666668 347.50604166666665L15.088958333333334 349.6038333333334Z"
    stroke-width="2"></path>
  <path stroke="#000000" stroke-linejoin="round"
    d="M276.24437500000005 367.0579583333333L318.7895833333334 430.99125000000004L385.4177083333334 428.89345833333334L327.41170833333337 341.7157916666667L276.24437500000005 367.0579583333333Z"
    stroke-width="2"></path>
  <path stroke="#000000" stroke-linejoin="round"
    d="M124.38879166666666 326.38054166666666L166.934 390.30233333333337L233.57362500000002 388.20454166666667L175.556125 301.026875L124.38879166666666 326.38054166666666Z"
    stroke-width="2"></path>
  <path stroke="#000000" stroke-linecap="round" stroke-linejoin="round"
    d="M277.19887500000004 119.56070833333334L215.85691666666668 154.98358333333334"
    stroke-width="2"></path>
  <path stroke="#000000" stroke-linecap="round" stroke-linejoin="round"
    d="M264.32845833333334 167.93737500000003L228.91612500000002 106.59541666666667"
    stroke-width="2"></path>
  <path stroke="#000000" stroke-linecap="round" stroke-linejoin="round"
    d="M391.1140416666667 150.23120833333334L329.7615416666667 185.65408333333332" stroke-width="2"></path>
  <path stroke="#000000" stroke-linecap="round" stroke-linejoin="round"
    d="M378.243625 198.59829166666665L342.82075 137.25633333333334" stroke-width="2"></path>
</svg>